# xmcd CD database file
#
# Track frame offsets:
#	150
#	13977
#	29087
#	46755
#	65957
#	80932
#	103530
#	118805
#	137852
#	152940
#	174567
#	190200
#	207972
#	223627
#	241752
#	257702
#	273830
#	294215
#	311577
#	327737
#
# Disc length: 4659 seconds
#
# Revision: 2
# Processed by: cddbd v1.4PL0 Copyright (c) Steve Scherf et al.
# Submitted via: jetAudio 5
#
DISCID=39123114
DTITLE=John Lennon - Lennon Legend-The Very Best Of John Lennon
DYEAR=1900
DGENRE=Blues
TTITLE0=Imagine
TTITLE1=Instant Karma!
TTITLE2=Mother
TTITLE3=Jealous Guy
TTITLE4=Power To The People
TTITLE5=Cold Turkey
TTITLE6=Love
TTITLE7=Mind Games
TTITLE8=Whatever Gets You Thru The Night
TTITLE9=#9 Dream
TTITLE10=Stand By Me
TTITLE11=(Just Like) Starting Over
TTITLE12=Woman
TTITLE13=Beatiful Boy
TTITLE14=Watching The Wheels
TTITLE15=Nobody Told Me
TTITLE16=Borrowed Time
TTITLE17=Working Class Hero
TTITLE18=Happy Xmas (War Is Over)
TTITLE19=Give Peace A Chance
EXTD=ID3G:   0
EXTT0=
EXTT1=
EXTT2=
EXTT3=
EXTT4=
EXTT5=
EXTT6=
EXTT7=
EXTT8=
EXTT9=
EXTT10=
EXTT11=
EXTT12=
EXTT13=
EXTT14=
EXTT15=
EXTT16=
EXTT17=
EXTT18=
EXTT19=
PLAYORDER=
